<svg width="36" height="40" viewBox="0 0 36 40" fill="none" xmlns="http://www.w3.org/2000/svg">
  <path d="M6.24219 0.734375C5.95312 0.859375 5.69531 1.14062 5.58594 1.42969C5.52344 1.57812 5.5 4.0625 5.5 9.26562V16.875H6.125H6.75V9.375V1.875H15.8047H24.8672L24.8906 3.66406C24.9141 5.63281 24.9219 5.65625 25.4531 6.04688C25.6484 6.20312 25.7891 6.21094 27.4609 6.23438L29.25 6.25781V11.2578V16.25H29.875H30.5V10.8047V5.35156L28.1328 2.99219L25.7734 0.625H16.125C8.25781 0.632812 6.42969 0.648438 6.24219 0.734375ZM27.2578 3.90625L28.3516 5H27.2344H26.125V3.90625C26.125 3.30469 26.1328 2.8125 26.1484 2.8125C26.1562 2.8125 26.6562 3.30469 27.2578 3.90625Z" fill="#0960AD" />
  <path d="M16.9454 4.46092C13.0626 5.17967 10.8126 9.08592 12.1564 12.789C13.5001 16.5 18.0782 18.0312 21.3751 15.8672C22.7423 14.9765 23.6251 13.7344 24.0782 12.0703C24.2579 11.4297 24.2579 9.82029 24.0782 9.17967C23.6173 7.50779 22.7423 6.27342 21.3907 5.3906C20.1329 4.57029 18.3751 4.2031 16.9454 4.46092ZM19.0548 5.74217C21.297 6.21092 23.0001 8.31248 23.0001 10.625C23.0001 12.4687 21.8829 14.2812 20.2501 15.0703C18.7345 15.8047 17.2657 15.8047 15.7501 15.0703C14.4532 14.4453 13.422 13.1172 13.1173 11.6719C12.3673 8.1406 15.5079 4.99998 19.0548 5.74217Z" fill="#0960AD" />
  <path d="M18.5469 9.88276L16.7891 11.6406L16.2422 11.0937L15.6875 10.5468L15.2422 10.9999L14.7891 11.4531L15.6484 12.289C16.8906 13.4999 16.6094 13.6015 19.1484 11.0781C20.2812 9.95307 21.1953 9.00776 21.1953 8.98432C21.1875 8.96088 20.9844 8.76557 20.7422 8.53901L20.2969 8.13276L18.5469 9.88276Z" fill="#0960AD" />
  <path d="M28.0001 19.2577C26.6486 19.9218 25.5001 20.5233 25.4455 20.5937C25.297 20.7968 25.3205 21.1327 25.5001 21.4843C25.5861 21.6562 25.6564 21.8124 25.6564 21.8358C25.6564 21.914 24.7267 21.8749 24.047 21.7577C23.2423 21.6171 22.2033 21.3124 20.7736 20.7812C19.5236 20.3202 18.8283 20.1952 17.8595 20.2577C16.1564 20.3749 14.6173 21.2108 13.2189 22.8046L12.7423 23.3515L12.258 23.1718C11.9923 23.078 11.6095 22.8983 11.4064 22.7812C11.0626 22.578 11.047 22.5624 11.1642 22.3983C11.3205 22.1718 11.3126 21.8515 11.1486 21.6483C11.0314 21.5155 6.60952 18.9218 6.42202 18.8827C6.33609 18.8593 5.73452 19.8749 5.79702 19.9374C5.82827 19.9608 6.73452 20.4843 7.80484 21.1015C8.88296 21.7108 9.76577 22.2187 9.7814 22.2343C9.82827 22.2577 5.03921 30.4296 4.9689 30.453C4.92202 30.4686 4.02359 29.9843 2.9689 29.3827C1.91421 28.7811 1.01577 28.2733 0.968899 28.2655C0.882961 28.2421 0.281399 29.2577 0.343899 29.3202C0.367336 29.3358 1.43765 29.953 2.73452 30.6952C5.30484 32.1718 5.30484 32.164 5.69546 31.703C5.91421 31.4452 5.88296 31.4374 6.55484 31.9452C6.81265 32.1327 7.0314 32.2968 7.04702 32.3046C7.05484 32.3124 6.97671 32.4765 6.86734 32.664C6.62515 33.0858 6.60952 33.7186 6.82046 34.1796C7.06265 34.7265 7.7814 35.2343 8.44546 35.3515C8.70327 35.3905 8.78921 35.4452 8.85952 35.6249C8.9689 35.8905 9.50796 36.4061 9.88296 36.6093C10.0705 36.7108 10.3283 36.7577 10.7345 36.7577C11.297 36.7655 11.3283 36.7811 11.633 37.0546C12.0001 37.3983 12.4533 37.6327 12.9064 37.703C13.0861 37.7343 13.2345 37.7968 13.2345 37.8515C13.2345 38.0624 13.7033 38.5702 14.1408 38.828C14.5314 39.0624 14.6642 39.1015 15.0705 39.1015C15.633 39.0936 16.0939 38.8827 16.4142 38.4765C16.5314 38.328 16.6642 38.203 16.6955 38.203C16.7345 38.203 17.172 38.4452 17.672 38.7499C18.9845 39.5311 19.4767 39.5936 20.2814 39.1093C20.6095 38.914 20.7345 38.7733 20.9298 38.3983L21.1642 37.9296H21.672C22.4845 37.9218 23.1876 37.4374 23.3908 36.7421L23.4845 36.4452H24.0001C24.383 36.4374 24.6095 36.3905 24.8517 36.2655C25.2189 36.0702 25.6173 35.6249 25.7345 35.2655L25.8205 35.0155L26.2267 35.1718C27.9376 35.828 29.4533 33.8202 28.3751 32.3358L28.1408 32.0155L28.4376 31.5858C28.7033 31.1952 29.5939 30.3124 29.7189 30.3124C29.7501 30.3124 29.8517 30.4921 29.9533 30.7108C30.1642 31.1561 30.3595 31.328 30.6564 31.328C30.7658 31.328 31.8673 30.8358 33.1017 30.2343C34.3439 29.6405 35.4611 29.1015 35.5861 29.0468C35.7111 28.9921 35.8126 28.9218 35.8126 28.8827C35.8126 28.828 35.3595 27.8905 35.3048 27.828C35.2892 27.8124 34.3283 28.2421 33.172 28.7811C32.008 29.3202 31.0314 29.7655 30.9923 29.7655C30.9611 29.7577 30.6095 29.1015 30.2189 28.2968C29.8205 27.4921 28.883 25.578 28.1251 24.039L26.7501 21.2421L27.5548 20.8671C27.9923 20.6562 28.9767 20.1874 29.7423 19.8202L31.133 19.1483L30.8517 18.5937C30.7033 18.2968 30.547 18.0468 30.5158 18.0546C30.4845 18.0546 29.3517 18.6015 28.0001 19.2577ZM20.4611 21.9687C22.8205 22.8437 23.7814 23.0624 25.2423 23.0702L26.2736 23.078L27.7267 26.039L29.1798 28.9921L28.4455 29.6874C28.0392 30.0702 27.5783 30.578 27.4142 30.8124L27.1173 31.2421L26.8283 31.0702C26.672 30.9765 25.6408 30.3358 24.5392 29.6483L22.5314 28.3983L22.7423 28.2421C23.0392 28.0311 24.172 26.9061 24.172 26.8202C24.172 26.789 23.9298 26.6249 23.6486 26.4608L23.1251 26.164L22.7658 26.5468C22.3986 26.9452 21.8283 27.3671 21.4767 27.4999C21.2814 27.5702 21.0783 27.4608 19.0783 26.2108C17.8673 25.453 16.8126 24.8436 16.7111 24.8436C16.3908 24.8436 16.2814 24.9296 15.8986 25.4999C15.422 26.203 14.6095 26.9608 14.0236 27.2655C13.4533 27.5546 12.6564 27.703 12.3595 27.5858C12.0626 27.4765 12.0783 27.3124 12.4767 26.3202C12.9923 25.0468 13.5236 24.2499 14.5626 23.203C15.3048 22.453 15.5626 22.2421 16.047 22.0077C16.9455 21.5702 17.3595 21.4843 18.3908 21.5155C19.258 21.539 19.3283 21.5546 20.4611 21.9687ZM11.7736 24.914C11.2033 25.8593 10.758 27.3436 10.8986 27.8358C11.133 28.703 12.297 29.1171 13.5861 28.789C14.4689 28.5624 15.1642 28.1483 15.9376 27.3827C16.3283 26.9999 16.6955 26.6015 16.758 26.4999C16.8673 26.3202 16.883 26.328 22.0626 29.5702C24.922 31.3593 27.3205 32.8983 27.4064 32.9921C27.7033 33.3436 27.4064 34.0624 26.9533 34.0624C26.8673 34.0624 26.0705 33.6327 25.1876 33.1015C24.3048 32.578 23.422 32.0468 23.2189 31.9296L22.8595 31.7186L22.5705 32.2265C22.4142 32.5077 22.3048 32.7655 22.3283 32.8046C22.3517 32.8358 22.8205 33.1249 23.3673 33.4452C23.9142 33.7655 24.4298 34.0858 24.5001 34.1561C24.6955 34.3515 24.6798 34.8046 24.4845 34.9999C24.1876 35.2968 23.922 35.2108 22.4767 34.3358C21.7267 33.8827 21.1095 33.5155 21.0939 33.5155C21.0548 33.5155 20.5001 34.453 20.5001 34.5233C20.5001 34.5546 20.883 34.8202 21.3517 35.1015C22.3205 35.6952 22.4767 35.9061 22.2658 36.3124C21.9923 36.8358 21.7189 36.7733 20.133 35.8202C19.3751 35.3671 18.7501 35.0077 18.7423 35.0155C18.6798 35.0858 18.1564 35.9843 18.1564 36.0233C18.1564 36.0468 18.5236 36.289 18.9689 36.5624C19.8517 37.0936 20.0236 37.3046 19.883 37.6796C19.8361 37.789 19.7111 37.9452 19.5939 38.0155C19.3361 38.1874 19.1876 38.1405 18.1642 37.5077L17.3908 37.0311L17.3595 36.4843C17.3205 35.7186 17.0705 35.3749 16.2658 34.9686C15.7189 34.6952 15.6564 34.6405 15.6564 34.4374C15.6564 34.0858 15.4689 33.7343 15.1095 33.414C14.7189 33.0546 14.2267 32.8202 13.883 32.8124C13.6642 32.8124 13.6017 32.7655 13.4689 32.5077C13.297 32.1561 12.8751 31.789 12.3908 31.5468C12.1095 31.414 11.9533 31.3905 11.5158 31.4218C11.008 31.4608 10.9767 31.453 10.8283 31.2577C10.7423 31.1483 10.4689 30.9296 10.2189 30.7811C9.82827 30.5468 9.69546 30.5077 9.28921 30.5077C8.76577 30.5155 8.27359 30.7186 8.01577 31.0546C7.92984 31.164 7.83609 31.2499 7.79702 31.2499C7.73452 31.2499 6.5939 30.4061 6.5939 30.3593C6.5939 30.3358 7.45327 28.8358 8.50796 27.0155L10.4142 23.7108L11.2267 24.0936L12.0314 24.4843L11.7736 24.914ZM9.71109 31.9218C9.85952 32.0468 9.95327 32.1952 9.95327 32.3124C9.95327 32.5702 8.9689 34.039 8.75796 34.0936C8.46109 34.1718 7.92202 33.7655 7.92202 33.4686C7.92202 33.3124 8.25796 32.7655 8.83609 31.9686C9.07046 31.6561 9.37515 31.6327 9.71109 31.9218ZM11.8517 32.664C12.1408 32.8124 12.3751 33.0624 12.3751 33.2265C12.3751 33.4374 11.047 35.3905 10.8283 35.4921C10.6798 35.5624 10.5939 35.5311 10.3205 35.3436C10.1408 35.2186 9.98452 35.039 9.9689 34.9452C9.95327 34.8358 10.172 34.4374 10.5783 33.828C11.4376 32.539 11.5001 32.4843 11.8517 32.664ZM14.1486 34.2655C14.5236 34.5468 14.4923 34.7655 13.9767 35.4999C13.4064 36.328 13.3205 36.4061 13.0705 36.4061C12.7814 36.4061 12.3751 36.0546 12.3751 35.8046C12.3751 35.6405 12.9845 34.6561 13.3751 34.1952C13.5392 34.0077 13.8439 34.0311 14.1486 34.2655ZM15.7814 36.1015C16.0783 36.2811 16.1876 36.5624 16.0705 36.8202C16.0236 36.914 15.8439 37.1796 15.6642 37.3983C15.2892 37.8749 15.133 37.9061 14.6955 37.6171C14.3283 37.3671 14.3205 37.1483 14.6564 36.6561C15.172 35.8827 15.3126 35.8124 15.7814 36.1015Z" fill="#0960AD" />
  <path d="M31.9297 26.8594L31.375 27.1484L31.6562 27.7109L31.9453 28.2656L32.5469 27.9609L33.1562 27.6562L32.9531 27.2031C32.8437 26.9609 32.7344 26.7109 32.7109 26.6562C32.6484 26.5156 32.5469 26.5391 31.9297 26.8594Z" fill="#0960AD" />
</svg>